<?xml version="1.0" encoding="UTF-8" standalone="yes"?>
<svg viewBox="0 0 1017 1017" version="1.2" baseProfile="tiny-ps" xmlns="http://www.w3.org/2000/svg">
  <title>bimi-svg-tiny-12-ps</title>
  <path d="m76.878 457.05c2.763-16.076 12.753-27.106 27.176-30.005 2.368-0.476 20.571-0.794 40.451-0.707 27.77 0.121 36.568-0.41 39.276 3.394 1.592 2.238 1.078 5.975 1.078 12.228 0 8.479-0.386 12.183-1.418 13.595-1.337 1.83-3.201 1.97-32.584 2.441l-31.165 0.5-2.917 3.266-2.916 3.266v29.968h24.345c17.418 0 24.112-0.409 26.657 2.643 1.875 2.248 1.498 6.373 1.498 13.922 0 11.18-0.189 12.494-2 13.861-1.653 1.248-6.205 1.516-26.25 1.542l-24.25 0.032v29.5c0 28.167-0.09 29.59-2 31.5-1.815 1.815-3.333 2-16.389 2-12.676 0-14.67-0.228-16.75-1.911l-2.361-1.911-0.294-61.339c-0.2-41.623 0.061-63.411 0.813-67.785zm424.99-4.028c-4.768-9.347-0.419-19.279 9.938-22.697 13.133-4.333 25.689 8.654 20.252 20.946-2.662 6.016-7.142 9.021-14.216 9.532-7.467 0.54-13.138-2.222-15.974-7.781zm163.01 6.222c-12.749-6.405-9.675-25.754 4.632-29.153 9.147-2.173 17.508 2.399 20.283 11.09 2.191 6.86-1.894 15.646-8.571 18.436-4.544 1.899-12.169 1.725-16.344-0.373zm-306.54 26.252c-18.947-51.258-19.035-51.55-16.285-54.3 0.812-0.812 5.464-1.2 14.389-1.2 11.102 0 13.519 0.277 15.27 1.75 1.43 1.203 7.111 16.285 18.175 48.25 8.852 25.575 17.619 50.775 19.481 56 1.863 5.225 3.934 11.525 4.604 14 1.38 5.097 2.881 7.412 2.881 4.442 0-1.077 4.899-16.355 10.887-33.95 5.988-17.596 15.026-44.142 20.084-58.992 6.814-20.004 9.838-27.583 11.669-29.25 2.275-2.071 3.426-2.25 14.482-2.25 6.605 0 12.88 0.466 13.944 1.035 2.532 1.356 2.479 5.038-0.173 11.965-1.158 3.025-12.872 35.65-26.031 72.5s-24.392 68.179-24.962 69.62c-0.569 1.441-2.151 3.129-3.515 3.75-3.031 1.382-31.187 1.536-34.725 0.191-0.362-0.138-0.652-0.196-0.923-0.303-1.837-0.727-2.791-3.69-19.26-48.758-7.336-20.075-16.332-44.6-19.992-54.5zm193.37 10.229c4.347-9.931 15.862-18.281 29.2-21.173 12.518-2.715 29.716-1.124 40.156 3.715 7.387 3.423 14.21 9.821 17.188 16.116 2.668 5.639 3.634 12.005 2.051 13.514-0.784 0.747-19.796 1.718-24.204 1.236-0.687-0.075-1.25-1.09-1.25-2.255 0-1.164-1.693-3.81-3.762-5.879-4.455-4.455-12.49-6.625-20.565-5.554-9.131 1.211-13.873 5.281-13.873 11.907 0 7.977 4.442 10.508 24.833 14.15 16.532 2.953 22.204 4.733 29.141 9.145 19.508 12.408 16.476 42.436-5.461 54.092-9.017 4.791-17.209 6.593-29.813 6.558-17.831-0.049-29.419-3.806-38.421-12.455-6.859-6.592-11.61-18.464-8.837-22.085 1.021-1.332 3.421-1.676 12.758-1.826 10.385-0.167 12.948-0.311 13.827 0.836 0.361 0.472 0.438 1.161 0.657 2.156 0.799 3.637 4.906 7.883 9.516 9.836 4.373 1.854 17.243 2.069 22.217 0.372 2.045-0.698 4.904-2.679 6.355-4.403 2.154-2.56 2.543-3.838 2.123-6.972-0.994-7.41-3.9-8.945-25.118-13.261-21.505-4.375-26.675-6.437-33.663-13.425-4.543-4.543-5.843-6.611-6.884-10.949-1.658-6.913-0.848-17.28 1.829-23.396zm157.9 6.929c7.085-13.515 22.089-24.645 37.742-27.996 28.279-6.055 56.508 6.15 67.857 29.338 11.858 24.228 7.176 53.899-11.242 71.242-12.178 11.466-24.088 16.002-42.115 16.041-18.894 0.04-31.415-4.685-43.079-16.256-11.102-11.013-16.356-24.772-16.239-42.527 0.078-11.899 2.067-20.29 7.076-29.842zm158.12-19.98c3.872-3.625 10.828-6.887 17.626-8.265 12.194-2.473 25.495-0.983 35.223 3.947 6.568 3.328 14.553 12.202 17.452 19.393 2.269 5.631 2.323 6.571 2.622 46.466 0.21 27.961-0.034 41.356-0.781 42.75-0.998 1.865-2.05 2.031-12.896 2.031-9.983 0-12.055-0.271-13.396-1.752-1.372-1.517-1.628-6.59-1.905-37.75-0.31-34.998-0.381-36.114-2.546-40.164-3.58-6.695-10.345-10.339-19.172-10.328-10.035 0.012-17.412 3.915-21.36 11.302-2.173 4.065-2.256 5.295-2.741 40.48-0.424 30.793-0.727 36.431-2 37.235-0.825 0.52-6.755 0.953-13.179 0.962-9.298 0.012-11.998-0.305-13.25-1.556-1.389-1.39-1.571-7.756-1.571-54.929s0.182-53.539 1.571-54.929c1.244-1.243 3.907-1.568 12.75-1.556 6.149 9e-3 11.7 0.347 12.337 0.753 0.637 0.405 1.481 2.454 1.874 4.553l0.716 3.815 2.626-2.458zm-366.87 49.822c0-45.495 0.196-52.335 1.557-54.277 1.463-2.089 2.286-2.223 13.671-2.223 9.869 0 12.453 0.307 13.943 1.655 1.728 1.564 1.829 4.58 1.829 54.671 0 47.929-0.159 53.192-1.655 54.845-1.432 1.583-3.309 1.829-13.943 1.829-11.565 0-12.38-0.131-13.845-2.223-1.361-1.942-1.557-8.782-1.557-54.277zm157.02-0.527c-0.013-45.034 0.181-51.808 1.542-53.75 1.463-2.089 2.286-2.223 13.671-2.223 9.869 0 12.453 0.307 13.943 1.655 1.728 1.564 1.829 4.588 1.829 54.929 0 47.508-0.173 53.446-1.601 54.874-1.33 1.331-3.727 1.553-14.222 1.321-12.335-0.273-12.65-0.336-13.884-2.779-0.969-1.916-1.267-14.532-1.278-54.027zm129.81-15.973c-3.406-7.203-7.571-11.508-14.05-14.525-3.992-1.858-6.856-2.437-11.775-2.379-10.323 0.121-15.614 2.38-21.635 9.238-12.647 14.404-10.294 42.191 4.471 52.802 4.762 3.422 10.126 4.854 18.164 4.849 12.049-8e-3 21.567-6.907 26.085-18.906 3.058-8.123 2.445-23.244-1.26-31.079z" fill="#031856" fill-rule="evenodd"/>
  <path d="m214.27 427.4c-10.611 2.575-19.117 10.677-22.412 21.345-1.908 6.178-1.995 9.34-1.995 72.818 0 65.162 0.036 66.379 1.984 67.422 1.217 0.651 7.69 0.954 16.722 0.785 14.59-0.274 14.751-0.302 16.017-2.777 0.97-1.895 1.219-9.454 1.028-31.251l-0.251-28.75h23.639c30.14 1e-3 28.361 0.993 28.361-15.808 0-17.338 1.96-16.191-27.655-16.191h-23.845l-0.162-5.75c-0.089-3.163-0.134-8-0.1-10.75 0.19-15.544 0.186-15.515 2.717-18.045l2.454-2.455h29.391c27.203 0 29.513-0.136 31.045-1.829 1.349-1.491 1.655-4.078 1.655-14 0-17.717 3.678-16.19-38.75-16.086-23.912 0.059-36.338 0.471-39.843 1.322z" fill="#FF8015"/>
</svg>